HIERARCHY
ROOT Hips
{
  OFFSET 0 0.240689 0
  CHANNELS 6 Xposition Yposition Zposition Zrotation Xrotation Yrotation
  JOINT Bip01_Spine0
  {
    OFFSET 0 -24.7459 49.7988
    CHANNELS 6 Xposition Yposition Zposition Zrotation Xrotation Yrotation
    JOINT Bip01_Pelvis
    {
      OFFSET 0 0 0
      CHANNELS 6 Xposition Yposition Zposition Zrotation Xrotation Yrotation
      JOINT Bip01_Spine0_Tail
      {
        OFFSET -6.47486 -3.86022 0
        CHANNELS 6 Xposition Yposition Zposition Zrotation Xrotation Yrotation
        JOINT Bip01_Spine0_Tail1
        {
          OFFSET 10.3837 -0.00825882 0
          CHANNELS 6 Xposition Yposition Zposition Zrotation Xrotation Yrotation
          JOINT Bip01_Spine0_Tail2
          {
            OFFSET 10.3837 -0.00826263 0
            CHANNELS 6 Xposition Yposition Zposition Zrotation Xrotation Yrotation
            JOINT Bip01_Spine0_Tail3
            {
              OFFSET 10.3837 -0.00825882 0
              CHANNELS 6 Xposition Yposition Zposition Zrotation Xrotation Yrotation
              JOINT Bip01_Spine0_Tail4
              {
                OFFSET 10.3837 -0.00826263 0
                CHANNELS 6 Xposition Yposition Zposition Zrotation Xrotation Yrotation
                End Site
                {
                  OFFSET 0 0 0
                }
              }
            }
          }
        }
      }
      JOINT Bip01_R_Thigh
      {
        OFFSET 0 -1.52588e-005 -8.75617
        CHANNELS 6 Xposition Yposition Zposition Zrotation Xrotation Yrotation
        JOINT Bip01_R_Calf
        {
          OFFSET 19.7638 0 0
          CHANNELS 6 Xposition Yposition Zposition Zrotation Xrotation Yrotation
          JOINT Bip01_R_Foot
          {
            OFFSET 18.6534 0 0
            CHANNELS 6 Xposition Yposition Zposition Zrotation Xrotation Yrotation
            JOINT Bip01_R_Toe0
            {
              OFFSET 5.09145 13.9567 0
              CHANNELS 6 Xposition Yposition Zposition Zrotation Xrotation Yrotation
              JOINT Bip01_R_Toe01
              {
                OFFSET 4.28803 0 0
                CHANNELS 6 Xposition Yposition Zposition Zrotation Xrotation Yrotation
                JOINT Bip01_R_Toe02
                {
                  OFFSET 3.85801 0 0
                  CHANNELS 6 Xposition Yposition Zposition Zrotation Xrotation Yrotation
                  End Site
                  {
                    OFFSET 0 0 0
                  }
                }
              }
            }
          }
        }
      }
      JOINT Bip01_L_Thigh
      {
        OFFSET 0 1.52588e-005 8.75617
        CHANNELS 6 Xposition Yposition Zposition Zrotation Xrotation Yrotation
        JOINT Bip01_L_Calf
        {
          OFFSET 19.7638 0 0
          CHANNELS 6 Xposition Yposition Zposition Zrotation Xrotation Yrotation
          JOINT Bip01_L_Foot
          {
            OFFSET 18.6534 0 0
            CHANNELS 6 Xposition Yposition Zposition Zrotation Xrotation Yrotation
            JOINT Bip01_L_Toe0
            {
              OFFSET 5.09144 13.9567 0
              CHANNELS 6 Xposition Yposition Zposition Zrotation Xrotation Yrotation
              JOINT Bip01_L_Toe01
              {
                OFFSET 4.28802 0 0
                CHANNELS 6 Xposition Yposition Zposition Zrotation Xrotation Yrotation
                JOINT Bip01_L_Toe02
                {
                  OFFSET 3.85801 0 0
                  CHANNELS 6 Xposition Yposition Zposition Zrotation Xrotation Yrotation
                  End Site
                  {
                    OFFSET 0 0 0
                  }
                }
              }
            }
          }
        }
      }
      JOINT Bip01_Spine
      {
        OFFSET 9.14835 -0.00640869 -1.1e-005
        CHANNELS 6 Xposition Yposition Zposition Zrotation Xrotation Yrotation
        JOINT Bip01_Spine1
        {
          OFFSET 8.04366 -0.00638199 0
          CHANNELS 6 Xposition Yposition Zposition Zrotation Xrotation Yrotation
          JOINT Bip01_Spine2
          {
            OFFSET 8.04367 -0.00639343 0
            CHANNELS 6 Xposition Yposition Zposition Zrotation Xrotation Yrotation
            JOINT Bip01_Spine3
            {
              OFFSET 8.04304 -0.00831222 0
              CHANNELS 6 Xposition Yposition Zposition Zrotation Xrotation Yrotation
              JOINT Bip01_Neck
              {
                OFFSET 10.6685 1.06813 0
                CHANNELS 6 Xposition Yposition Zposition Zrotation Xrotation Yrotation
                JOINT Bip01_R_Clavicle
                {
                  OFFSET -3.21661 -4.89635 -9.04802
                  CHANNELS 6 Xposition Yposition Zposition Zrotation Xrotation Yrotation
                  JOINT Bip01_R_UpperArm
                  {
                    OFFSET 19.0492 0 0
                    CHANNELS 6 Xposition Yposition Zposition Zrotation Xrotation Yrotation
                    JOINT Bip01_R_Forearm
                    {
                      OFFSET 10.3706 0 0
                      CHANNELS 6 Xposition Yposition Zposition Zrotation Xrotation Yrotation
                      JOINT Bip01_R_Hand
                      {
                        OFFSET 22.8632 0 0
                        CHANNELS 6 Xposition Yposition Zposition Zrotation Xrotation Yrotation
                        JOINT Bip01_R_Finger0
                        {
                          OFFSET 6.48259 0.103651 0.504496
                          CHANNELS 6 Xposition Yposition Zposition Zrotation Xrotation Yrotation
                          JOINT Bip01_R_Finger01
                          {
                            OFFSET 3.66847 0 0
                            CHANNELS 6 Xposition Yposition Zposition Zrotation Xrotation Yrotation
                            End Site
                            {
                              OFFSET 0 0 0
                            }
                          }
                        }
                      }
                    }
                  }
                }
                JOINT Bip01_L_Clavicle
                {
                  OFFSET -3.21661 -4.89641 9.04797
                  CHANNELS 6 Xposition Yposition Zposition Zrotation Xrotation Yrotation
                  JOINT Bip01_L_UpperArm
                  {
                    OFFSET 19.0492 0 0
                    CHANNELS 6 Xposition Yposition Zposition Zrotation Xrotation Yrotation
                    JOINT Bip01_L_Forearm
                    {
                      OFFSET 10.3706 0 0
                      CHANNELS 6 Xposition Yposition Zposition Zrotation Xrotation Yrotation
                      JOINT Bip01_L_Hand
                      {
                        OFFSET 22.8631 0 0
                        CHANNELS 6 Xposition Yposition Zposition Zrotation Xrotation Yrotation
                        JOINT Bip01_L_Finger0
                        {
                          OFFSET 6.48257 0.103655 -0.504492
                          CHANNELS 6 Xposition Yposition Zposition Zrotation Xrotation Yrotation
                          JOINT Bip01_L_Finger01
                          {
                            OFFSET 3.66844 0 0
                            CHANNELS 6 Xposition Yposition Zposition Zrotation Xrotation Yrotation
                            End Site
                            {
                              OFFSET 0 0 0
                            }
                          }
                        }
                      }
                    }
                  }
                }
                JOINT Bip01_Neck1
                {
                  OFFSET 7.52459 -0.00656509 0
                  CHANNELS 6 Xposition Yposition Zposition Zrotation Xrotation Yrotation
                  JOINT Bip01_Neck2
                  {
                    OFFSET 8.4783 -0.00588226 0
                    CHANNELS 6 Xposition Yposition Zposition Zrotation Xrotation Yrotation
                    JOINT Bip01_Head
                    {
                      OFFSET 8.41606 0 0
                      CHANNELS 6 Xposition Yposition Zposition Zrotation Xrotation Yrotation
                      JOINT EyesBlue
                      {
                        OFFSET 0 0 0
                        CHANNELS 6 Xposition Yposition Zposition Zrotation Xrotation Yrotation
                        JOINT EyesBlue_2
                        {
                          OFFSET 0 -0.500007 0
                          CHANNELS 6 Xposition Yposition Zposition Zrotation Xrotation Yrotation
                          End Site
                          {
                            OFFSET 0 0 0
                          }
                        }
                      }
                      JOINT Bip01_Head2_Eyeleds
                      {
                        OFFSET 6.52751 7.61746 2.2e-005
                        CHANNELS 6 Xposition Yposition Zposition Zrotation Xrotation Yrotation
                        End Site
                        {
                          OFFSET 0 0 0
                        }
                      }
                      JOINT Bip01_Head_Muzzle
                      {
                        OFFSET 2.88628 13.9448 3.88994
                        CHANNELS 6 Xposition Yposition Zposition Zrotation Xrotation Yrotation
                        End Site
                        {
                          OFFSET 0 0 0
                        }
                      }
                      JOINT Bip01_Head1_Jaw
                      {
                        OFFSET 0.271065 1.32405 0
                        CHANNELS 6 Xposition Yposition Zposition Zrotation Xrotation Yrotation
                        JOINT _Bip01_Head11_TungeControler
                        {
                          OFFSET 4.61616 5.82872 0
                          CHANNELS 6 Xposition Yposition Zposition Zrotation Xrotation Yrotation
                          JOINT _Bip01_Ponytail3_tunge
                          {
                            OFFSET 5.17785 2.98805 0
                            CHANNELS 6 Xposition Yposition Zposition Zrotation Xrotation Yrotation
                            JOINT Bip01_Ponytail31
                            {
                              OFFSET 5.57569 0 0
                              CHANNELS 6 Xposition Yposition Zposition Zrotation Xrotation Yrotation
                              JOINT Bip01_Ponytail32
                              {
                                OFFSET 2.93165 0 0
                                CHANNELS 6 Xposition Yposition Zposition Zrotation Xrotation Yrotation
                                JOINT Bip01_Ponytail3Nub
                                {
                                  OFFSET 3.30155 0 0
                                  CHANNELS 6 Xposition Yposition Zposition Zrotation Xrotation Yrotation
                                  End Site
                                  {
                                    OFFSET 0 0 0
                                  }
                                }
                              }
                            }
                          }
                        }
                        JOINT Bip01_Head_JawNub
                        {
                          OFFSET 15.5776 -0.000389099 0
                          CHANNELS 6 Xposition Yposition Zposition Zrotation Xrotation Yrotation
                          End Site
                          {
                            OFFSET 0 0 0
                          }
                        }
                      }
                      JOINT Bip01_Ponytail2
                      {
                        OFFSET 9.40334 1.03973 -6.51764
                        CHANNELS 6 Xposition Yposition Zposition Zrotation Xrotation Yrotation
                        JOINT Bip01_Ponytail21
                        {
                          OFFSET 2.77018 -0.00640106 1.33514e-005
                          CHANNELS 6 Xposition Yposition Zposition Zrotation Xrotation Yrotation
                          End Site
                          {
                            OFFSET 0 0 0
                          }
                        }
                      }
                      JOINT Bip01_Ponytail1
                      {
                        OFFSET 9.40368 1.03969 6.51768
                        CHANNELS 6 Xposition Yposition Zposition Zrotation Xrotation Yrotation
                        JOINT Bip01_Ponytail11
                        {
                          OFFSET 2.77018 -0.00640487 0
                          CHANNELS 6 Xposition Yposition Zposition Zrotation Xrotation Yrotation
                          End Site
                          {
                            OFFSET 0 0 0
                          }
                        }
                      }
                    }
                  }
                }
              }
            }
          }
        }
      }
    }
  }
}
MOTION
Frames:	3
Frame Time:	0.0333333
0 0 0 -0 -90 -0 0.000869 -28.7004 46.9792 88.7403 -0.00614887 103.025 -1.90735e-006 -4.76837e-007 -7.10543e-015 -90 -3.50835e-015 -90 -6.47521 -3.85979 -6.46114e-005 142.959 0.00139421 -0.000694 10.3809 -0.00787353 4.98294e-005 -17.1639 0.000434512 0.000588234 10.3808 -0.00772857 4.19616e-005 -17.4998 0.000890172 0.00121407 10.3808 -0.00788116 4.94719e-005 -17.4999 0.00088006 0.00120002 10.3808 -0.00770569 4.22001e-005 -17.4999 0.000879996 0.0012 4.9738e-014 -1.90735e-005 -8.75617 -111.436 -5.00426 161 19.7638 -2.13163e-014 -5.72205e-006 -62.6552 0.00026371 0.00106815 18.6534 -1.52588e-005 -1.90735e-006 -8.63855 -2.13415 -0.14814 5.09136 13.9567 -8.91858e-006 115.644 10.3601 7.90986 4.28805 1.52588e-005 1.90735e-006 42 -1.05535e-005 1.34092e-006 3.85795 -2.28882e-005 1.90736e-006 -45 -1.54344e-005 -4.79172e-006 1.52588e-005 1.14441e-005 8.75617 -128.088 3.14308 -163.137 19.7638 -1.52588e-005 -7.6294e-006 -64.1304 0.000275112 0.00121639 18.6534 0 1.90735e-006 4.7346 -0.53068 2.44158 5.09143 13.9567 -8.44426e-006 86.6444 -10.3587 -7.90958 4.288 1.52588e-005 5.72205e-006 42 -5.9135e-005 -9.11788e-007 3.85797 -1.14441e-005 3.81468e-006 -2.5 -3.46538e-005 1.86886e-006 9.14772 -0.00627136 2.07424e-005 -4.95395 0.000591269 0.000643 8.0441 -0.0062809 0.000103951 4.50073 0.00155879 0.0014421 8.04445 -0.00632095 9.6798e-005 7.97473 0.000961655 0.000837007 8.04245 -0.00820923 9.05986e-006 -8.30998 0.000765385 0.000885042 10.6677 1.06844 2.38242e-006 -20.1625 0.00129402 0.00184697 -2.60601 -5.24637 -9.04789 -159.881 -74.4179 129.502 19.0492 -6.19888e-006 3.05176e-005 85.9447 3.38875 -105.182 10.3705 9.05942e-014 -3.8147e-006 -111.848 0.000665991 -0.00346152 22.8631 2.28882e-005 7.6294e-006 -14.3448 12.4172 -3.32904 6.48253 0.103683 0.504486 -28.8505 -12.0849 -9.77753 3.66846 -7.62939e-006 2.86102e-006 40.107 2.07313e-005 -1.33496e-006 -2.606 -5.24647 9.04776 -159.883 74.4168 -129.498 19.0491 5.72204e-006 1.52588e-005 92.4384 -3.85229 102.041 10.3706 1.52588e-005 -7.6294e-006 -107.924 0.00068128 -0.00430857 22.8631 -3.55271e-015 3.8147e-006 -15.7515 -19.8127 0.0912877 6.4826 0.103622 -0.504501 -28.8496 12.0857 9.77884 3.66845 -1.14441e-005 -9.53675e-006 40.107 3.4749e-005 -2.5299e-005 7.52849 -0.00618744 2.47961e-005 21.5012 0.000487202 0.000336873 8.47661 -0.00644684 3.00407e-005 14.0004 0.00190174 0.00148599 8.41606 -2.28882e-005 -1.20348e-013 -110.995 -0.000738737 0.00403211 -7.6294e-006 -7.10542e-015 -3.33786e-006 -23.1098 1.37701e-015 90 1.43053e-006 -0.5 1.14911e-005 -69.3036 90 159.304 -3.8147e-006 -1.42108e-014 -2.22045e-016 -99.049 -3.05176e-005 -180 4.22819 13.8161 3.88787 -22.989 1.37021e-015 90 -3.8147e-006 -1.42108e-014 -2.22045e-016 -85.3358 -7.01671e-015 -180 -3.05176e-005 7.10543e-015 -4.76837e-007 -120.289 5.5147e-008 -2.02091e-005 3.05176e-005 1.52588e-005 9.53674e-007 133.74 1.93193e-005 4.63331e-006 1.52588e-005 2.64645e-005 1.90733e-006 1.83152 -2.32926e-005 1.24117e-006 3.05176e-005 -3.33786e-006 -1.43051e-006 -17.65 -1.48369e-005 -4.70632e-006 5.32908e-014 1.52588e-005 -4.76837e-007 -26.1943 -1.84021e-007 2.00836e-008 15.5776 -0.000389099 -7.62939e-006 -1.59028e-015 4.96962e-017 -1.98785e-016 9.40586 1.04111 -6.51594 70.3401 -28.9453 146.584 2.76727 -0.00307846 -0.00497436 -39.6036 50.8656 39.8733 9.40619 1.04103 6.51597 70.3402 28.9457 -146.584 2.7673 -0.00311279 0.00496674 -39.6036 -50.8656 -39.8732 
0 0 2.65857 -0 -90 -0 0.000869 -28.7004 45.9314 88.7401 -0.0065158 101.537 -1.90735e-006 -4.76837e-007 0 -90 -3.50835e-015 -90 -6.47521 -3.85979 -6.46114e-005 141.504 0.0014027 -0.0006765 10.3809 -0.00787353 4.98294e-005 -4.99085 0.000493344 0.000538055 10.3808 -0.00772857 4.19616e-005 -5.32608 0.00101263 0.00111154 10.3808 -0.00788116 4.94718e-005 -5.3261 0.00100176 0.0010992 10.3808 -0.00770569 4.22001e-005 -5.3261 0.00100173 0.00109919 4.9738e-014 -1.90735e-005 -8.75617 -111.033 -4.57303 160.19 19.7638 -2.4869e-014 -5.72205e-006 -67.4647 0.0002151 0.00106874 18.6534 -1.52588e-005 -1.90735e-006 -4.67473 -2.71088 0.382887 5.09136 13.9567 -8.84012e-006 115.283 10.1715 8.11022 4.28805 1.52588e-005 1.90735e-006 42 -1.00731e-005 1.17149e-006 3.85795 -2.28882e-005 1.90736e-006 -45 -1.5872e-005 -4.99839e-006 1.52588e-005 1.14441e-005 8.75617 -128.418 2.63149 -162.446 19.7638 -1.52588e-005 -7.6294e-006 -68.9339 0.000220048 0.00121718 18.6534 7.10542e-015 1.90735e-006 8.34007 0.0553519 2.1859 5.09143 13.9567 -8.47464e-006 85.9587 -10.3545 -7.90125 4.288 1.52588e-005 5.72205e-006 42 -5.84974e-005 -8.07139e-007 3.85797 -1.14441e-005 3.81468e-006 -2.5 -3.4177e-005 1.83598e-006 9.14772 -0.00627136 2.07424e-005 -3.84568 0.000603411 0.000631468 8.0441 -0.0062809 0.000103951 5.39587 0.00158111 0.00141756 8.04445 -0.00632095 9.67979e-005 8.86935 0.000974747 0.000821855 8.04245 -0.00820923 9.05986e-006 -7.41551 0.000778835 0.000872995 10.6677 1.06844 2.38858e-006 -17.3466 0.00140348 0.00178152 -2.85989 -5.11022 -9.04789 -162.699 -74.4165 129.505 19.0492 -6.19888e-006 3.05176e-005 85.7708 3.35119 -105.663 10.3705 9.94759e-014 -3.8147e-006 -118.061 0.000871589 -0.00345674 22.8631 2.28882e-005 7.6294e-006 -10.4005 12.2795 -3.50664 6.48253 0.103683 0.504486 -28.8506 -12.0849 -9.77753 3.66846 -7.62939e-006 2.86102e-006 40.107 2.0958e-005 -1.57395e-006 -2.85973 -5.11014 9.04776 -162.697 74.4165 -129.505 19.0491 5.72204e-006 1.52588e-005 92.9148 -3.39696 102.991 10.3706 1.52588e-005 -7.6294e-006 -114.316 0.000941148 -0.0043046 22.8631 3.55271e-014 3.8147e-006 -11.65 -19.8827 0.860257 6.4826 0.103622 -0.504501 -28.8496 12.0857 9.77884 3.66845 -1.14441e-005 -9.53675e-006 40.107 3.40221e-005 -2.44725e-005 7.52849 -0.00618744 2.47982e-005 19.2786 0.000454667 0.000362108 8.47661 -0.00644684 3.00407e-005 11.6211 0.00183864 0.00156362 8.41606 -2.28882e-005 -1.3034e-013 -111.115 -0.000746881 0.00402978 -7.6294e-006 -2.13163e-014 -3.33786e-006 -23.1098 1.37701e-015 90 1.43053e-006 -0.5 1.14893e-005 -70.6469 90 160.647 -3.8147e-006 0 1.11022e-016 -99.2303 -3.05176e-005 -180 4.54175 13.8104 3.88787 -22.989 1.37021e-015 90 -3.8147e-006 0 1.11022e-016 -85.3358 -7.01671e-015 -180 -3.05176e-005 0 -4.76837e-007 -120.289 -8.13103e-008 -1.99912e-005 3.05176e-005 1.52588e-005 9.53674e-007 133.74 2.61871e-005 4.62671e-006 1.52588e-005 2.64645e-005 1.90733e-006 1.83152 -2.88162e-005 1.46088e-006 3.05176e-005 -3.33786e-006 -1.43051e-006 -17.65 -1.62806e-005 -5.11473e-006 1.52767e-013 1.52588e-005 -4.76837e-007 -26.1943 -4.55607e-008 9.07476e-008 15.5776 -0.000389099 -7.62939e-006 5.17255e-034 -1.49089e-016 1.98785e-016 9.40586 1.04111 -6.51594 70.3401 -28.9453 146.584 2.76727 -0.00307846 -0.00497436 -39.6036 50.8656 39.8733 9.40619 1.04103 6.51597 70.3402 28.9457 -146.584 2.7673 -0.00311279 0.00496674 -39.6036 -50.8657 -39.8732 
0 0 3.81941 -0 -90 -0 0.000869 -28.7004 44.8448 88.7402 -0.00637369 100.147 -1.90735e-006 -4.76837e-007 0 -90 -3.50835e-015 -90 -6.47521 -3.85979 -6.46114e-005 139.867 0.00141249 -0.000656333 10.3809 -0.00787353 4.98294e-005 7.88457 0.000549957 0.000479263 10.3808 -0.00772857 4.19616e-005 7.54948 0.00113148 0.000992217 10.3808 -0.00788116 4.94716e-005 7.54948 0.00111625 0.000980772 10.3808 -0.00770569 4.21994e-005 7.54948 0.00103941 0.000980281 2.13163e-014 -1.90735e-005 -8.75617 -110.793 -4.09232 159.323 19.7638 -2.13163e-014 -5.72205e-006 -72.4672 0.00016603 0.00106879 18.6534 -1.52588e-005 -1.90735e-006 -1.11377 -3.23535 0.991345 5.09136 13.9567 -8.75816e-006 115.469 9.95732 8.44835 4.28805 1.52588e-005 1.90735e-006 42 -9.55926e-006 9.80831e-007 3.85795 -2.28882e-005 1.90736e-006 -45 -1.63482e-005 -5.21198e-006 1.52588e-005 1.14441e-005 8.75617 -128.892 2.07532 -161.708 19.7638 -1.52588e-005 -7.6294e-006 -73.769 0.000166638 0.00121729 18.6534 -7.10542e-015 1.90735e-006 11.7856 0.686737 1.90445 5.09143 13.9567 -8.50417e-006 85.4055 -10.3552 -7.89328 4.288 1.52588e-005 5.72205e-006 42 -5.79074e-005 -7.04912e-007 3.85797 -1.14441e-005 3.81468e-006 -2.5 -3.36942e-005 1.80529e-006 9.14772 -0.00627136 2.07424e-005 -2.58214 0.000616859 0.000618033 8.0441 -0.0062809 0.000103951 6.34767 0.00160459 0.00139106 8.04445 -0.00632095 9.67979e-005 9.82169 0.000988412 0.000805505 8.04245 -0.00820923 9.05985e-006 -6.4639 0.0007931 0.00085994 10.6677 1.06844 2.39156e-006 -14.4683 0.00147959 0.00171009 -3.1126 -4.95916 -9.04789 -165.578 -74.4168 129.495 19.0492 -6.19888e-006 3.05176e-005 85.8733 4.63237 -106.235 10.3705 1.24345e-013 -3.8147e-006 -124.259 0.00108687 -0.00344589 22.8631 2.28882e-005 7.6294e-006 -5.68468 12.1407 -3.61545 6.48253 0.103683 0.504486 -28.8505 -12.0849 -9.77753 3.66846 -7.62939e-006 2.86102e-006 40.107 2.06092e-005 -1.35015e-006 -3.11245 -4.95905 9.04776 -165.576 74.417 -129.496 19.0491 5.72204e-006 1.52588e-005 93.6933 -4.12113 104.159 10.3706 1.52588e-005 -7.6294e-006 -120.753 0.0012156 -0.00429375 22.8631 6.75015e-014 3.8147e-006 -6.70666 -19.9604 1.70532 6.4826 0.103622 -0.504501 -28.8496 12.0857 9.77884 3.66845 -1.14441e-005 -9.53675e-006 40.107 3.24003e-005 -2.29142e-005 7.52849 -0.00618744 2.4797e-005 17.0012 0.000451067 0.000376461 8.47661 -0.00644684 3.00407e-005 9.11619 0.00176863 0.00164248 8.41606 -2.28882e-005 -1.37113e-013 -111.324 -0.00076108 0.0040257 -7.6294e-006 -4.61853e-014 -3.33786e-006 -23.1098 1.37701e-015 90 1.43053e-006 -0.5 1.14873e-005 -72.2224 90 162.222 -3.8147e-006 -4.26325e-014 0 -99.4116 -4.57764e-005 -180 4.8553 13.8048 3.88787 -22.989 1.37021e-015 90 -3.8147e-006 -4.26325e-014 0 -85.3358 -7.01671e-015 -180 -3.05176e-005 0 -4.76837e-007 -120.289 -2.06067e-007 -1.97962e-005 3.05176e-005 1.52588e-005 9.53674e-007 133.74 4.35968e-005 4.61883e-006 1.52588e-005 2.64645e-005 1.90732e-006 1.83152 -4.26283e-005 2.01754e-006 3.05176e-005 -3.33786e-006 -1.43051e-006 -17.65 -1.98481e-005 -6.20513e-006 2.77112e-013 1.52588e-005 -4.76837e-007 -26.1943 7.90421e-008 1.52806e-007 15.5776 -0.000389099 -7.6294e-006 0 0 -5.96354e-016 9.40586 1.04111 -6.51594 70.3401 -28.9453 146.584 2.76727 -0.00307846 -0.00497436 -39.6036 50.8656 39.8733 9.40619 1.04103 6.51597 70.3402 28.9457 -146.584 2.7673 -0.00311279 0.00496674 -39.6036 -50.8657 -39.8732 
